<?xml version="1.0" encoding="utf-8" ?>
<svg baseProfile="full" height="687.0px" version="1.1" viewBox="0,0,674.0,687.0" width="674.0px" xmlns="http://www.w3.org/2000/svg" xmlns:ev="http://www.w3.org/2001/xml-events" xmlns:xlink="http://www.w3.org/1999/xlink"><defs /><g id="rooms"><path d="M 345.0 287.0 L 450.0 287.0 L 664.0 287.0 L 664.0 72.0 L 450.0 72.0 L 345.0 72.0 L 345.0 287.0 Z" fill="#DA70D6" fill-opacity="0.5" stroke="#DA70D6" stroke-width="1.0" /><path d="M 345.0 677.0 L 450.0 677.0 L 664.0 677.0 L 664.0 449.0 L 450.0 449.0 L 345.0 449.0 L 345.0 677.0 Z" fill="#DA70D6" fill-opacity="0.5" stroke="#DA70D6" stroke-width="1.0" /><path d="M 86.0 449.0 L 86.0 677.0 L 344.0 677.0 L 345.0 677.0 L 345.0 449.0 L 450.0 449.0 L 664.0 449.0 L 664.0 287.0 L 450.0 287.0 L 345.0 287.0 L 345.0 72.0 L 344.0 72.0 L 86.0 72.0 L 86.0 287.0 L 86.0 449.0 Z" fill="#98FB98" fill-opacity="0.5" stroke="#98FB98" stroke-width="1.0" /></g><g id="walls"><path d="M 655.0 459.0 L 673.0 459.0 L 673.0 686.0 L 655.0 686.0 Z" fill="#444444" stroke="#444444" stroke-width="1.0" /><path d="M 336.0 668.0 L 673.0 668.0 L 673.0 686.0 L 336.0 686.0 Z" fill="#444444" stroke="#444444" stroke-width="1.0" /><path d="M 77.0 63.0 L 95.0 63.0 L 95.0 668.0 L 77.0 668.0 Z" fill="#444444" stroke="#444444" stroke-width="1.0" /><path d="M 77.0 668.0 L 354.0 668.0 L 354.0 686.0 L 77.0 686.0 Z" fill="#444444" stroke="#444444" stroke-width="1.0" /><path d="M 336.0 81.0 L 352.0 81.0 L 352.0 277.0 L 336.0 277.0 Z" fill="#444444" stroke="#444444" stroke-width="1.0" /><path d="M 336.0 277.0 L 459.0 277.0 L 459.0 297.0 L 336.0 297.0 Z" fill="#444444" stroke="#444444" stroke-width="1.0" /><path d="M 336.0 439.0 L 459.0 439.0 L 459.0 459.0 L 336.0 459.0 Z" fill="#444444" stroke="#444444" stroke-width="1.0" /><path d="M 336.0 439.0 L 354.0 439.0 L 354.0 668.0 L 336.0 668.0 Z" fill="#444444" stroke="#444444" stroke-width="1.0" /><path d="M 77.0 63.0 L 352.0 63.0 L 352.0 81.0 L 77.0 81.0 Z" fill="#444444" stroke="#444444" stroke-width="1.0" /><path d="M 655.0 81.0 L 673.0 81.0 L 673.0 296.0 L 655.0 296.0 Z" fill="#444444" stroke="#444444" stroke-width="1.0" /><path d="M 336.0 63.0 L 673.0 63.0 L 673.0 81.0 L 336.0 81.0 Z" fill="#444444" stroke="#444444" stroke-width="1.0" /><path d="M 441.0 278.0 L 673.0 278.0 L 673.0 296.0 L 441.0 296.0 Z" fill="#444444" stroke="#444444" stroke-width="1.0" /><path d="M 441.0 297.0 L 459.0 297.0 L 459.0 439.0 L 441.0 439.0 Z" fill="#444444" stroke="#444444" stroke-width="1.0" /><path d="M 655.0 296.0 L 673.0 296.0 L 673.0 459.0 L 655.0 459.0 Z" fill="#444444" stroke="#444444" stroke-width="1.0" /><path d="M 441.0 439.0 L 673.0 439.0 L 673.0 459.0 L 441.0 459.0 Z" fill="#444444" stroke="#444444" stroke-width="1.0" /></g><g id="icons"><path d="M 597.0 388.0 L 625.0 388.0 L 625.0 440.0 L 597.0 440.0 Z" fill="#FF69B4" stroke="#FF69B4" stroke-width="1.0" /><path d="M 598.0 299.0 L 636.0 299.0 L 636.0 332.0 L 598.0 332.0 Z" fill="#00BFFF" stroke="#00BFFF" stroke-width="1.0" /><path d="M 513.0 668.0 L 604.0 668.0 L 604.0 686.0 L 513.0 686.0 Z" fill="#87CEEB" stroke="#87CEEB" stroke-width="1.0" /><path d="M 77.0 460.0 L 95.0 460.0 L 95.0 522.0 L 77.0 522.0 Z" fill="#FFD700" stroke="#FFD700" stroke-width="1.0" /><path d="M 193.0 668.0 L 286.0 668.0 L 286.0 686.0 L 193.0 686.0 Z" fill="#87CEEB" stroke="#87CEEB" stroke-width="1.0" /><path d="M 366.0 277.0 L 425.0 277.0 L 425.0 297.0 L 366.0 297.0 Z" fill="#FFD700" stroke="#FFD700" stroke-width="1.0" /><path d="M 367.0 439.0 L 427.0 439.0 L 427.0 459.0 L 367.0 459.0 Z" fill="#FFD700" stroke="#FFD700" stroke-width="1.0" /><path d="M 655.0 114.0 L 673.0 114.0 L 673.0 207.0 L 655.0 207.0 Z" fill="#87CEEB" stroke="#87CEEB" stroke-width="1.0" /><path d="M 441.0 305.0 L 459.0 305.0 L 459.0 365.0 L 441.0 365.0 Z" fill="#FFD700" stroke="#FFD700" stroke-width="1.0" /><path d="M 655.0 336.0 L 673.0 336.0 L 673.0 428.0 L 655.0 428.0 Z" fill="#87CEEB" stroke="#87CEEB" stroke-width="1.0" /></g></svg>