<?xml version="1.0" encoding="utf-8" ?>
<svg baseProfile="full" height="654.0px" version="1.1" viewBox="0,0,723.0,654.0" width="723.0px" xmlns="http://www.w3.org/2000/svg" xmlns:ev="http://www.w3.org/2001/xml-events" xmlns:xlink="http://www.w3.org/1999/xlink"><defs /><g id="rooms"><path d="M 255.0 67.0 L 255.0 126.0 L 255.0 162.0 L 255.0 196.0 L 255.0 204.0 L 255.0 267.0 L 507.0 267.0 L 507.0 204.0 L 507.0 196.0 L 507.0 162.0 L 507.0 126.0 L 509.0 126.0 L 509.0 67.0 L 507.0 67.0 L 255.0 67.0 Z" fill="#FFA500" fill-opacity="0.5" stroke="#FFA500" stroke-width="1.0" /><path d="M 54.0 196.0 L 138.0 196.0 L 138.0 204.0 L 54.0 204.0 L 54.0 196.0 Z" fill="#4169E1" fill-opacity="0.5" stroke="#4169E1" stroke-width="1.0" /><path d="M 138.0 162.0 L 174.0 162.0 L 233.0 162.0 L 233.0 196.0 L 233.0 204.0 L 255.0 204.0 L 255.0 196.0 L 255.0 162.0 L 255.0 126.0 L 255.0 67.0 L 233.0 67.0 L 174.0 67.0 L 138.0 67.0 L 138.0 126.0 L 138.0 162.0 Z" fill="#B8860B" fill-opacity="0.5" stroke="#B8860B" stroke-width="1.0" /><path d="M 507.0 162.0 L 507.0 196.0 L 507.0 204.0 L 507.0 267.0 L 255.0 267.0 L 255.0 204.0 L 233.0 204.0 L 233.0 196.0 L 233.0 162.0 L 174.0 162.0 L 138.0 162.0 L 138.0 126.0 L 54.0 126.0 L 54.0 162.0 L 54.0 196.0 L 138.0 196.0 L 138.0 204.0 L 54.0 204.0 L 54.0 267.0 L 54.0 272.0 L 54.0 298.0 L 54.0 369.0 L 54.0 370.0 L 54.0 400.0 L 54.0 530.0 L 54.0 619.0 L 138.0 619.0 L 174.0 619.0 L 233.0 619.0 L 255.0 619.0 L 255.0 646.0 L 507.0 646.0 L 507.0 619.0 L 507.0 530.0 L 509.0 530.0 L 509.0 619.0 L 509.0 646.0 L 575.0 646.0 L 606.0 646.0 L 715.0 646.0 L 715.0 619.0 L 715.0 530.0 L 715.0 400.0 L 715.0 370.0 L 715.0 369.0 L 715.0 298.0 L 715.0 272.0 L 715.0 267.0 L 715.0 204.0 L 715.0 196.0 L 715.0 162.0 L 715.0 126.0 L 715.0 67.0 L 606.0 67.0 L 575.0 67.0 L 509.0 67.0 L 509.0 126.0 L 507.0 126.0 L 507.0 162.0 Z" fill="#98FB98" fill-opacity="0.5" stroke="#98FB98" stroke-width="1.0" /></g><g id="walls"><path d="M 252.0 267.0 L 258.0 267.0 L 258.0 298.0 L 252.0 298.0 Z" fill="#444444" stroke="#444444" stroke-width="1.0" /><path d="M 505.0 75.0 L 513.0 75.0 L 513.0 126.0 L 505.0 126.0 Z" fill="#444444" stroke="#444444" stroke-width="1.0" /><path d="M 229.0 162.0 L 237.0 162.0 L 237.0 208.0 L 229.0 208.0 Z" fill="#444444" stroke="#444444" stroke-width="1.0" /><path d="M 138.0 200.0 L 237.0 200.0 L 237.0 208.0 L 138.0 208.0 Z" fill="#444444" stroke="#444444" stroke-width="1.0" /><path d="M 171.0 298.0 L 177.0 298.0 L 177.0 372.0 L 171.0 372.0 Z" fill="#444444" stroke="#444444" stroke-width="1.0" /><path d="M 47.0 366.0 L 177.0 366.0 L 177.0 372.0 L 47.0 372.0 Z" fill="#444444" stroke="#444444" stroke-width="1.0" /><path d="M 708.0 404.0 L 722.0 404.0 L 722.0 653.0 L 708.0 653.0 Z" fill="#444444" stroke="#444444" stroke-width="1.0" /><path d="M 500.0 639.0 L 722.0 639.0 L 722.0 653.0 L 500.0 653.0 Z" fill="#444444" stroke="#444444" stroke-width="1.0" /><path d="M 572.0 374.0 L 578.0 374.0 L 578.0 397.0 L 572.0 397.0 Z" fill="#444444" stroke="#444444" stroke-width="1.0" /><path d="M 572.0 397.0 L 609.0 397.0 L 609.0 403.0 L 572.0 403.0 Z" fill="#444444" stroke="#444444" stroke-width="1.0" /><path d="M 47.0 366.0 L 61.0 366.0 L 61.0 612.0 L 47.0 612.0 Z" fill="#444444" stroke="#444444" stroke-width="1.0" /><path d="M 47.0 612.0 L 262.0 612.0 L 262.0 626.0 L 47.0 626.0 Z" fill="#444444" stroke="#444444" stroke-width="1.0" /><path d="M 248.0 626.0 L 262.0 626.0 L 262.0 642.0 L 248.0 642.0 Z" fill="#444444" stroke="#444444" stroke-width="1.0" /><path d="M 248.0 642.0 L 514.0 642.0 L 514.0 650.0 L 248.0 650.0 Z" fill="#444444" stroke="#444444" stroke-width="1.0" /><path d="M 505.0 192.0 L 513.0 192.0 L 513.0 366.0 L 505.0 366.0 Z" fill="#444444" stroke="#444444" stroke-width="1.0" /><path d="M 505.0 366.0 L 578.0 366.0 L 578.0 374.0 L 505.0 374.0 Z" fill="#444444" stroke="#444444" stroke-width="1.0" /><path d="M 46.0 59.0 L 513.0 59.0 L 513.0 75.0 L 46.0 75.0 Z" fill="#444444" stroke="#444444" stroke-width="1.0" /><path d="M 46.0 59.0 L 62.0 59.0 L 62.0 269.0 L 46.0 269.0 Z" fill="#444444" stroke="#444444" stroke-width="1.0" /><path d="M 171.0 275.0 L 177.0 275.0 L 177.0 298.0 L 171.0 298.0 Z" fill="#444444" stroke="#444444" stroke-width="1.0" /><path d="M 46.0 269.0 L 177.0 269.0 L 177.0 275.0 L 46.0 275.0 Z" fill="#444444" stroke="#444444" stroke-width="1.0" /><path d="M 708.0 74.0 L 722.0 74.0 L 722.0 200.0 L 708.0 200.0 Z" fill="#444444" stroke="#444444" stroke-width="1.0" /><path d="M 505.0 60.0 L 722.0 60.0 L 722.0 74.0 L 505.0 74.0 Z" fill="#444444" stroke="#444444" stroke-width="1.0" /><path d="M 603.0 192.0 L 722.0 192.0 L 722.0 200.0 L 603.0 200.0 Z" fill="#444444" stroke="#444444" stroke-width="1.0" /><path d="M 603.0 200.0 L 609.0 200.0 L 609.0 396.0 L 603.0 396.0 Z" fill="#444444" stroke="#444444" stroke-width="1.0" /><path d="M 505.0 192.0 L 609.0 192.0 L 609.0 200.0 L 505.0 200.0 Z" fill="#444444" stroke="#444444" stroke-width="1.0" /><path d="M 252.0 298.0 L 258.0 298.0 L 258.0 530.0 L 252.0 530.0 Z" fill="#444444" stroke="#444444" stroke-width="1.0" /><path d="M 708.0 200.0 L 722.0 200.0 L 722.0 404.0 L 708.0 404.0 Z" fill="#444444" stroke="#444444" stroke-width="1.0" /><path d="M 603.0 396.0 L 722.0 396.0 L 722.0 404.0 L 603.0 404.0 Z" fill="#444444" stroke="#444444" stroke-width="1.0" /><path d="M 500.0 530.0 L 514.0 530.0 L 514.0 639.0 L 500.0 639.0 Z" fill="#444444" stroke="#444444" stroke-width="1.0" /><path d="M 248.0 530.0 L 262.0 530.0 L 262.0 626.0 L 248.0 626.0 Z" fill="#444444" stroke="#444444" stroke-width="1.0" /><path d="M 47.0 269.0 L 61.0 269.0 L 61.0 366.0 L 47.0 366.0 Z" fill="#444444" stroke="#444444" stroke-width="1.0" /></g><g id="icons"><path d="M 402.0 77.0 L 455.0 77.0 L 455.0 126.0 L 402.0 126.0 Z" fill="#FF4500" stroke="#FF4500" stroke-width="1.0" /><path d="M 303.0 76.0 L 356.0 76.0 L 356.0 120.0 L 303.0 120.0 Z" fill="#CD853F" stroke="#CD853F" stroke-width="1.0" /><path d="M 544.0 78.0 L 587.0 78.0 L 587.0 121.0 L 544.0 121.0 Z" fill="#CD853F" stroke="#CD853F" stroke-width="1.0" /><path d="M 589.0 77.0 L 631.0 77.0 L 631.0 120.0 L 589.0 120.0 Z" fill="#CD853F" stroke="#CD853F" stroke-width="1.0" /><path d="M 662.0 259.0 L 705.0 259.0 L 705.0 283.0 L 662.0 283.0 Z" fill="#FF69B4" stroke="#FF69B4" stroke-width="1.0" /><path d="M 61.0 137.0 L 104.0 137.0 L 104.0 162.0 L 61.0 162.0 Z" fill="#FF69B4" stroke="#FF69B4" stroke-width="1.0" /><path d="M 574.0 639.0 L 678.0 639.0 L 678.0 653.0 L 574.0 653.0 Z" fill="#87CEEB" stroke="#87CEEB" stroke-width="1.0" /><path d="M 104.0 612.0 L 208.0 612.0 L 208.0 626.0 L 104.0 626.0 Z" fill="#87CEEB" stroke="#87CEEB" stroke-width="1.0" /><path d="M 603.0 276.0 L 609.0 276.0 L 609.0 323.0 L 603.0 323.0 Z" fill="#FFD700" stroke="#FFD700" stroke-width="1.0" /></g></svg>